<?xml version="1.0" encoding="utf-8"?>
<!-- Generator: Adobe Illustrator 16.0.4, SVG Export Plug-In . SVG Version: 6.00 Build 0)  -->
<!DOCTYPE svg PUBLIC "-//W3C//DTD SVG 1.1//EN" "http://www.w3.org/Graphics/SVG/1.1/DTD/svg11.dtd">
<svg version="1.1" id="Layer_1" xmlns="http://www.w3.org/2000/svg" xmlns:xlink="http://www.w3.org/1999/xlink" x="0px" y="0px"
	 width="250.5px" height="59.3px" viewBox="0 0 250.5 59.3" enable-background="new 0 0 250.5 59.3" xml:space="preserve">
<g>
	<path d="M92.34,31.48c0,0.96,0.42,1.26,1.56,1.26h1.86c1.08,0,1.5-0.3,1.5-1.26V27.1h1.68v4.56c0,1.86-0.72,2.521-2.88,2.521H93.54
		c-2.1,0-2.88-0.721-2.88-2.521V27.1h1.68V31.48z"/>
	<path d="M100.26,31.24v-0.9c0-2.759,0.72-3.24,3.36-3.24h1.5c2.76,0,3.479,0.42,3.479,2.4h-1.74c0-0.54-0.18-0.84-1.8-0.84h-1.32
		c-1.5,0-1.8,0.12-1.8,1.621v0.779c0,1.38,0.24,1.56,1.74,1.56h1.38c1.5,0,1.8-0.12,1.8-0.899h1.74c0,1.859-0.479,2.46-3.479,2.46
		h-1.56C100.979,34.18,100.26,33.58,100.26,31.24z"/>
	<path d="M115.56,27.1c1.8,0,2.64,0.66,2.64,1.98h-1.8c0-0.42-0.18-0.6-0.84-0.6h-2.82c-0.48,0-0.84,0.12-0.84,0.66
		s0.36,0.6,0.84,0.6l3.12,0.12c1.62,0.06,2.4,0.24,2.4,2.16c0,1.5-0.6,2.16-2.4,2.16h-3.48c-1.8,0-2.4-0.66-2.4-1.98h1.74
		c0,0.36,0.36,0.601,0.84,0.601h2.82c0.72,0,1.14-0.12,1.14-0.721c0-0.48-0.24-0.721-1.2-0.779l-2.7-0.12
		c-1.92-0.061-2.641-0.24-2.641-1.98c0-1.5,0.72-2.04,2.521-2.04L115.56,27.1L115.56,27.1z"/>
	<path d="M127.02,27.1v1.38h-5.52v1.32h5.34v1.44h-5.34v2.94h-1.68V27.1H127.02z"/>
	<path d="M135.12,27.1v5.64h4.38v1.44h-6.061V27.1H135.12z"/>
	<path d="M141,27.1h1.68v7.081H141V27.1z"/>
	<path d="M151.979,28.9c0,1.2-0.18,1.381-0.6,1.56c0.54,0.12,0.96,0.421,0.96,1.681c0,1.5-0.48,2.1-1.98,2.1h-6V27.1h5.4
		C151.439,27.1,151.979,27.64,151.979,28.9z M149.52,29.74c0.42,0,0.721-0.12,0.721-0.6s-0.24-0.66-0.721-0.66h-3.42v1.26H149.52z
		 M149.82,32.74c0.539,0,0.84-0.24,0.84-0.84s-0.301-0.72-0.9-0.72h-3.66v1.56H149.82z"/>
	<path d="M161.58,34.18h-1.68v-1.081c0-0.719-0.36-1.02-1.141-1.02H155.4v2.101h-1.681V27.1H159c1.859,0,2.58,0.6,2.58,2.28v0.48
		c0,0.78-0.121,1.2-0.54,1.499c0.36,0.121,0.659,0.541,0.659,1.321v1.5H161.58z M159.779,29.56c0-0.54-0.239-0.72-0.84-0.72h-3.6
		v1.62H159c0.6,0,0.779-0.179,0.779-0.72V29.56L159.779,29.56z"/>
	<path d="M168.779,27.1l3.66,7.081h-1.98L169.62,32.5h-4.32l-0.841,1.681h-1.979l3.661-7.081H168.779z M167.459,28.42l-1.379,2.64
		h2.82l-1.32-2.64H167.459z"/>
	<path d="M181.141,34.18h-1.682v-1.081c0-0.719-0.359-1.02-1.139-1.02h-3.361v2.101h-1.68V27.1h5.28c1.86,0,2.581,0.6,2.581,2.28
		v0.48c0,0.78-0.121,1.2-0.541,1.499c0.359,0.121,0.66,0.541,0.66,1.321v1.5H181.141z M179.4,29.56c0-0.54-0.24-0.72-0.841-0.72
		h-3.601v1.62h3.661c0.6,0,0.78-0.179,0.78-0.72V29.56L179.4,29.56z"/>
	<path d="M185.88,30.281l2.28-3.181h1.92l-3.42,4.681v2.399h-1.681v-2.399L181.5,27.1h2.04L185.88,30.281z"/>
</g>
<g>
	<path d="M100.08,41.859c-0.24,0.24-0.48,0.301-0.959,0.301c-0.84,0-1.021-0.42-1.021-1.02c0-0.66,0.12-1.021,1.021-1.021
		c0.6,0,0.72,0.061,0.9,0.3l0,0v-0.6c0-0.48-0.06-0.66-0.72-0.66s-0.66,0.18-0.66,0.6h-0.42v-0.18c0-0.42,0.12-0.779,1.08-0.779
		c0.9,0,1.08,0.299,1.08,0.899v2.341h-0.36L100.08,41.859L100.08,41.859z M99.3,41.8c0.54,0,0.78-0.12,0.78-0.601
		c0-0.479-0.24-0.601-0.78-0.601s-0.78,0.121-0.78,0.601C98.52,41.68,98.76,41.8,99.3,41.8z"/>
	<path d="M101.22,38.919h0.42v0.42l0,0c0.18-0.359,0.42-0.48,0.9-0.48c0.72,0,0.96,0.361,0.96,1.021v2.279h-0.42V40
		c0-0.359-0.06-0.719-0.6-0.719c-0.479,0-0.84,0.179-0.84,0.839v2.04h-0.42V38.919L101.22,38.919z"/>
	<path d="M106.2,41.74L106.2,41.74c-0.18,0.301-0.36,0.48-0.84,0.48c-0.9,0-1.14-0.42-1.14-1.68s0.24-1.682,1.08-1.682
		c0.36,0,0.66,0.061,0.9,0.48l0,0v-1.74h0.42v4.561h-0.42V41.74z M105.42,41.8c0.66,0,0.78-0.24,0.78-1.441
		c0-0.779-0.18-1.078-0.78-1.078s-0.78,0.119-0.78,1.26C104.7,41.62,104.82,41.8,105.42,41.8z"/>
	<path d="M112.32,40.959c0,0.96-0.3,1.2-1.44,1.2c-1.2,0-1.62-0.24-1.62-1.561v-1.559c0-1.32,0.42-1.561,1.62-1.561
		c1.02,0,1.44,0.119,1.44,1.2v0.3h-0.42v-0.3c0-0.721-0.24-0.78-1.02-0.78c-1.02,0-1.2,0.12-1.2,1.141v1.5
		c0,1.02,0.12,1.14,1.2,1.14c0.9,0,1.02-0.181,1.02-0.841v-0.299h0.42V40.959z"/>
	<path d="M113.46,40.599V40.9c0,0.72,0.12,0.9,0.66,0.9c0.66,0,0.78,0,0.78-0.66h0.42v0.119c0,0.66-0.18,0.9-1.14,0.9
		c-1.08,0-1.2-0.359-1.2-1.68s0.24-1.68,1.2-1.68s1.14,0.42,1.14,1.26v0.48L113.46,40.599L113.46,40.599z M114.9,40.24
		c0-0.66,0-0.959-0.72-0.959c-0.72,0-0.72,0.299-0.72,0.959H114.9z"/>
	<path d="M116.1,38.919h0.42v0.42l0,0c0.18-0.359,0.42-0.48,0.9-0.48c0.72,0,0.96,0.361,0.96,1.021v2.279h-0.42V40
		c0-0.359-0.06-0.719-0.6-0.719c-0.48,0-0.84,0.179-0.84,0.839v2.04h-0.42V38.919z"/>
	<path d="M119.28,39.281h-0.36v-0.361h0.36V38.2h0.42v0.72h1.02v0.361h-1.02v2.159c0,0.24,0.06,0.36,0.36,0.36
		c0.3,0,0.419-0.061,0.419-0.78h0.36c0,1.021-0.3,1.14-0.78,1.14c-0.6,0-0.78-0.18-0.78-0.66V39.281L119.28,39.281z"/>
	<path d="M121.74,40.599V40.9c0,0.72,0.12,0.9,0.66,0.9c0.66,0,0.78,0,0.78-0.66h0.42v0.119c0,0.66-0.18,0.9-1.14,0.9
		c-1.08,0-1.2-0.359-1.2-1.68s0.24-1.68,1.2-1.68s1.14,0.42,1.14,1.26v0.48L121.74,40.599L121.74,40.599z M123.24,40.24
		c0-0.66,0-0.959-0.72-0.959c-0.72,0-0.72,0.299-0.72,0.959H123.24z"/>
	<path d="M124.44,38.919h0.42v0.361l0,0c0.18-0.301,0.36-0.422,0.72-0.422c0.541,0,0.72,0.24,0.72,0.841v0.24h-0.36
		c0-0.601-0.06-0.78-0.54-0.78c-0.42,0-0.6,0.24-0.6,0.66v2.221h-0.42v-3.121H124.44z"/>
	<path d="M129,39.281h-0.42v-0.361H129v-0.6c0-0.6,0.3-0.84,0.84-0.84c0.119,0,0.18,0,0.301,0v0.359c-0.061,0-0.182,0-0.24,0
		c-0.24,0-0.48,0.061-0.48,0.48v0.6h0.721v0.361h-0.721v2.818H129V39.281L129,39.281z"/>
	<path d="M131.641,38.859c1.079,0,1.199,0.361,1.199,1.682c0,1.318-0.12,1.68-1.199,1.68c-1.021,0-1.201-0.301-1.201-1.68
		C130.439,39.281,130.56,38.859,131.641,38.859z M131.641,41.8c0.659,0,0.719-0.12,0.719-1.32c0-1.199-0.119-1.32-0.719-1.32
		c-0.661,0-0.721,0.121-0.721,1.32C130.92,41.74,130.979,41.8,131.641,41.8z"/>
	<path d="M133.56,38.919h0.42v0.361l0,0c0.181-0.301,0.36-0.422,0.72-0.422c0.541,0,0.721,0.24,0.721,0.841v0.24h-0.36
		c0-0.601-0.06-0.78-0.54-0.78c-0.42,0-0.6,0.24-0.6,0.66v2.221h-0.42v-3.121H133.56z"/>
	<path d="M137.939,37.599h0.42v1.98h0.42l1.561-1.98h0.54l-1.739,2.221l1.919,2.34h-0.54l-1.74-2.16h-0.359v2.16H138L137.939,37.599
		L137.939,37.599z"/>
	<path d="M141.42,38.919h0.42v0.42l0,0c0.18-0.359,0.42-0.48,0.9-0.48c0.719,0,0.959,0.361,0.959,1.021v2.279h-0.42V40
		c0-0.359-0.06-0.719-0.6-0.719c-0.48,0-0.84,0.179-0.84,0.839v2.04h-0.42V38.919L141.42,38.919z"/>
	<path d="M145.56,38.859c1.081,0,1.2,0.361,1.2,1.682c0,1.318-0.119,1.68-1.2,1.68c-1.02,0-1.2-0.301-1.2-1.68
		C144.42,39.281,144.54,38.859,145.56,38.859z M145.56,41.8c0.66,0,0.72-0.12,0.72-1.32c0-1.199-0.119-1.32-0.72-1.32
		c-0.659,0-0.72,0.121-0.72,1.32C144.84,41.74,144.959,41.8,145.56,41.8z"/>
	<path d="M147.24,38.919h0.42l0.66,2.82l0,0l0.6-2.82h0.6l0.601,2.82l0,0l0.659-2.82h0.42l-0.779,3.24h-0.6l-0.601-2.82l0,0
		l-0.6,2.82h-0.601L147.24,38.919z"/>
	<path d="M151.68,37.599h0.42v4.561h-0.42V37.599z"/>
	<path d="M153.42,40.599V40.9c0,0.72,0.12,0.9,0.66,0.9c0.66,0,0.779,0,0.779-0.66h0.42v0.119c0,0.66-0.18,0.9-1.139,0.9
		c-1.081,0-1.201-0.359-1.201-1.68s0.24-1.68,1.201-1.68c0.959,0,1.139,0.42,1.139,1.26v0.48L153.42,40.599L153.42,40.599z
		 M154.859,40.24c0-0.66,0-0.959-0.719-0.959c-0.721,0-0.721,0.299-0.721,0.959H154.859z"/>
	<path d="M157.979,41.74L157.979,41.74c-0.18,0.301-0.359,0.48-0.839,0.48c-0.9,0-1.141-0.42-1.141-1.68s0.24-1.682,1.08-1.682
		c0.359,0,0.66,0.061,0.899,0.48l0,0v-1.74h0.421v4.561h-0.421V41.74L157.979,41.74z M157.199,41.8c0.66,0,0.78-0.24,0.78-1.441
		c0-0.779-0.18-1.078-0.78-1.078c-0.6,0-0.779,0.119-0.779,1.26C156.42,41.62,156.6,41.8,157.199,41.8z"/>
	<path d="M161.16,41.56L161.16,41.56c-0.181,0.359-0.48,0.48-0.84,0.48c-1.021,0-1.08-0.66-1.08-1.561s0.06-1.561,1.08-1.561
		c0.42,0,0.659,0.121,0.84,0.48l0,0v-0.42h0.42v3.18c0,0.96-0.301,1.199-1.26,1.199c-0.601,0-1.021-0.239-1.021-0.899h0.42
		c0,0.36,0.181,0.48,0.66,0.48c0.66,0,0.78-0.12,0.78-0.899V41.56L161.16,41.56z M160.38,41.62c0.66,0,0.84-0.239,0.84-1.2
		c0-0.96-0.18-1.199-0.84-1.199s-0.72,0.3-0.72,1.199C159.66,41.32,159.72,41.62,160.38,41.62z"/>
	<path d="M162.72,40.599V40.9c0,0.72,0.12,0.9,0.66,0.9c0.66,0,0.78,0,0.78-0.66h0.42v0.119c0,0.66-0.18,0.9-1.141,0.9
		c-1.08,0-1.199-0.359-1.199-1.68s0.239-1.68,1.199-1.68c0.961,0,1.141,0.42,1.141,1.26v0.48L162.72,40.599L162.72,40.599z
		 M164.22,40.24c0-0.66,0-0.959-0.72-0.959c-0.721,0-0.721,0.299-0.721,0.959H164.22z"/>
	<path d="M167.34,37.599h0.72l1.38,4.021l0,0l1.381-4.021h0.72v4.561h-0.42v-4.08l0,0l-1.44,4.08h-0.48l-1.439-4.08l0,0v4.08h-0.42
		V37.599L167.34,37.599z"/>
	<path d="M174.3,41.859c-0.24,0.24-0.479,0.301-0.96,0.301c-0.84,0-1.02-0.42-1.02-1.02c0-0.66,0.119-1.021,1.02-1.021
		c0.6,0,0.72,0.061,0.9,0.3l0,0v-0.6c0-0.48-0.061-0.66-0.721-0.66s-0.66,0.18-0.66,0.6H172.5v-0.18c0-0.42,0.12-0.779,1.08-0.779
		c0.899,0,1.08,0.299,1.08,0.899v2.341h-0.36V41.859z M173.52,41.8c0.54,0,0.78-0.12,0.78-0.601c0-0.479-0.24-0.601-0.78-0.601
		s-0.779,0.121-0.779,0.601C172.8,41.68,172.979,41.8,173.52,41.8z"/>
	<path d="M175.5,38.919h0.42v0.42l0,0c0.18-0.359,0.42-0.48,0.9-0.48c0.72,0,0.959,0.361,0.959,1.021v2.279H177.3V40
		c0-0.359-0.06-0.719-0.601-0.719c-0.479,0-0.84,0.179-0.84,0.839v2.04H175.5V38.919L175.5,38.919z"/>
	<path d="M180.42,41.859c-0.24,0.24-0.48,0.301-0.961,0.301c-0.839,0-1.02-0.42-1.02-1.02c0-0.66,0.12-1.021,1.02-1.021
		c0.601,0,0.721,0.061,0.9,0.3l0,0v-0.6c0-0.48-0.06-0.66-0.719-0.66c-0.661,0-0.661,0.18-0.661,0.6h-0.42v-0.18
		c0-0.42,0.12-0.779,1.081-0.779c0.899,0,1.079,0.299,1.079,0.899v2.341h-0.36L180.42,41.859L180.42,41.859z M179.641,41.8
		c0.539,0,0.779-0.12,0.779-0.601c0-0.479-0.24-0.601-0.779-0.601c-0.541,0-0.781,0.121-0.781,0.601
		C178.859,41.68,179.1,41.8,179.641,41.8z"/>
	<path d="M183.54,41.56L183.54,41.56c-0.181,0.359-0.48,0.48-0.841,0.48c-1.02,0-1.079-0.66-1.079-1.561s0.06-1.561,1.079-1.561
		c0.421,0,0.66,0.121,0.841,0.48l0,0v-0.42h0.419v3.18c0,0.96-0.299,1.199-1.26,1.199c-0.6,0-1.02-0.239-1.02-0.899h0.42
		c0,0.36,0.18,0.48,0.66,0.48c0.66,0,0.78-0.12,0.78-0.899V41.56L183.54,41.56z M182.699,41.62c0.66,0,0.841-0.239,0.841-1.2
		c0-0.96-0.181-1.199-0.841-1.199c-0.659,0-0.72,0.3-0.72,1.199C181.979,41.32,182.04,41.62,182.699,41.62z"/>
	<path d="M185.1,40.599V40.9c0,0.72,0.12,0.9,0.66,0.9c0.66,0,0.78,0,0.78-0.66h0.419v0.119c0,0.66-0.18,0.9-1.139,0.9
		c-1.08,0-1.2-0.359-1.2-1.68s0.239-1.68,1.2-1.68c0.959,0,1.139,0.42,1.139,1.26v0.48L185.1,40.599L185.1,40.599z M186.54,40.24
		c0-0.66,0-0.959-0.72-0.959c-0.721,0-0.721,0.299-0.721,0.959H186.54z"/>
	<path d="M187.74,38.919h0.42v0.48l0,0c0.18-0.359,0.42-0.541,0.84-0.541s0.779,0.121,0.9,0.541c0.24-0.42,0.539-0.541,0.959-0.541
		c0.66,0,0.961,0.301,0.961,0.961v2.34h-0.42v-2.1c0-0.66-0.24-0.779-0.66-0.779c-0.541,0-0.781,0.179-0.781,0.839v2.04h-0.419
		v-2.22c0-0.48-0.181-0.659-0.66-0.659c-0.601,0-0.84,0.359-0.84,1.02v1.859h-0.42L187.74,38.919L187.74,38.919z"/>
	<path d="M193.02,40.599V40.9c0,0.72,0.121,0.9,0.66,0.9c0.66,0,0.779,0,0.779-0.66h0.421v0.119c0,0.66-0.181,0.9-1.14,0.9
		c-1.08,0-1.2-0.359-1.2-1.68s0.239-1.68,1.2-1.68c0.959,0,1.14,0.42,1.14,1.26v0.48L193.02,40.599L193.02,40.599z M194.52,40.24
		c0-0.66,0-0.959-0.72-0.959s-0.72,0.299-0.72,0.959H194.52z"/>
	<path d="M195.72,38.919h0.421v0.42l0,0c0.18-0.359,0.419-0.48,0.899-0.48c0.72,0,0.96,0.361,0.96,1.021v2.279h-0.42V40
		c0-0.359-0.061-0.719-0.601-0.719c-0.479,0-0.839,0.179-0.839,0.839v2.04h-0.421V38.919L195.72,38.919z"/>
	<path d="M198.84,39.281h-0.36v-0.361h0.36V38.2h0.42v0.72h1.02v0.361h-1.02v2.159c0,0.24,0.061,0.36,0.36,0.36
		s0.42-0.061,0.42-0.78h0.36c0,1.021-0.301,1.14-0.78,1.14c-0.601,0-0.78-0.18-0.78-0.66V39.281z"/>
</g>
<g>
	<path d="M68.16,35.74V16.6c0.9-1.68,1.68-2.16,2.58-2.76c0,2.22,0,18.18,0,18.84C69.479,33.58,68.34,35.02,68.16,35.74z
		 M69.72,36.759c-0.18-0.18-0.48-0.3-0.66-0.42c0.3-0.6,1.08-1.92,2.4-2.699l0.36-0.181v-16.5c0.66-0.96,2.1-1.32,2.82-1.38
		c0,1.5,0,17.58,0,18.6C72.18,34.541,70.44,36.041,69.72,36.759z M71.4,39.7c-0.06-1.319-0.66-1.919-0.72-2.04
		c0.54-0.6,1.86-1.801,4.32-2.04l0.6-0.06V18.52c0.54-0.12,1.2-0.3,2.46,0.419c0,1.021,0,7.8,0,9.18h1.32v-9.9
		c0,0-2.1-1.56-3.78-1.02v-3l-0.72,0.06c-0.12,0-1.8,0.18-3.18,1.32v-3.6l-0.96,0.54c-0.12,0.06-2.22,1.2-3.48,3.6l0,0v21.12
		c1.32,0.061,2.82,1.141,2.94,2.52h1.2V39.7z"/>
</g>
<g>
	<rect x="50.1" y="38.08" width="1.68" height="1.68"/>
	<rect x="65.94" y="41.859" width="1.68" height="1.682"/>
	<rect x="54.06" y="41.859" width="1.68" height="1.682"/>
	<rect x="50.1" y="41.859" width="1.68" height="1.682"/>
	<rect x="61.979" y="41.859" width="1.68" height="1.682"/>
	<rect x="58.02" y="41.859" width="1.68" height="1.682"/>
	<rect x="77.94" y="41.859" width="1.68" height="1.682"/>
	<rect x="70.02" y="41.859" width="1.68" height="1.682"/>
	<rect x="73.979" y="41.859" width="1.68" height="1.682"/>
	<rect x="73.979" y="38.14" width="1.68" height="1.68"/>
	<rect x="50.1" y="34.24" width="1.68" height="1.68"/>
	<rect x="81.84" y="38.08" width="1.68" height="1.68"/>
	<rect x="81.84" y="41.859" width="1.68" height="1.682"/>
	<rect x="65.94" y="45.759" width="1.68" height="1.681"/>
	<rect x="54.06" y="45.759" width="1.68" height="1.681"/>
	<rect x="50.1" y="45.759" width="1.68" height="1.681"/>
	<rect x="61.979" y="45.759" width="1.68" height="1.681"/>
	<rect x="58.02" y="45.759" width="1.68" height="1.681"/>
	<rect x="77.94" y="45.759" width="1.68" height="1.681"/>
	<rect x="70.02" y="45.759" width="1.68" height="1.681"/>
	<rect x="73.979" y="45.759" width="1.68" height="1.681"/>
	<rect x="81.84" y="30.339" width="1.68" height="1.681"/>
	<rect x="81.84" y="34.24" width="1.68" height="1.68"/>
	<rect x="81.84" y="26.32" width="1.68" height="1.68"/>
	<rect x="77.88" y="30.339" width="1.68" height="1.681"/>
	<rect x="77.88" y="38.08" width="1.68" height="1.68"/>
	<rect x="77.94" y="34.24" width="1.68" height="1.68"/>
</g>
<path d="M62.76,39.58c-1.86,0-7.56,0-8.7,0V18.4c1.5-0.78,2.58-0.6,3.12-0.36V36.64l0.72,0.06c2.76,0.181,4.5,1.56,5.22,2.28
	C63,39.099,62.88,39.339,62.76,39.58z M64.14,37.781c-0.9-0.841-3-2.4-5.76-2.761c0-1.14,0-18.96,0-20.64
	c1.8,0.24,3.3,2.04,3.3,2.04v17.7l0.48,0.239C63.6,35.2,64.5,36.58,64.92,37.3C64.68,37.419,64.38,37.599,64.14,37.781z
	 M66.18,36.58c-0.36-0.721-1.98-2.46-3.48-3.42c0-0.72,0-18.78,0-21.3c0.96,0.78,3,3.3,3.48,5.04V36.58z"/>
</svg>
